<svg width="400" height="65" fill="none" xmlns="http://www.w3.org/2000/svg"><path d="M89.969 32.38L70.28 51.328l-5.732-5.276L78.754 32.38 64.548 18.948l5.732-5.276L89.97 32.38zM25.17 18.948L11.215 32.38l13.956 13.672-5.482 5.276L0 32.38l19.689-18.708 5.482 5.276zm28.162 0l5.732 5.277-8.722 8.395-13.957 13.432-5.483-5.277 8.474-8.395 13.956-13.432zm195.639 0l5.732 5.277-8.723 8.395-13.956 13.432-5.483-5.277 8.474-8.155 13.956-13.672zM59.065 13.672l-5.732 5.276-8.473-8.155-13.957 13.432-5.732-5.277L44.86 0l14.205 13.672zm5.483 32.38L44.86 65 30.903 51.328l5.483-5.276 8.474 8.155 14.205-13.432 5.483 5.277z" fill="#02E7D9"/><path d="M126.854 45.812v-16.79l-6.48 9.114-4.735.24-6.979-9.354v16.79h-5.981V19.188h5.732l9.471 12.233 9.221-12.233h5.981v26.624h-6.23zm15.202 0l-2.991-2.639V19.188h6.231v20.867h12.71V19.188h5.982v23.746l-2.742 2.878h-19.19zm28.162 0V19.188h5.981v20.867h17.695v5.757h-23.676zm29.159 0V24.945h-9.47v-5.757h25.171v5.757h-9.471v20.867h-6.23zm26.417-26.624h-5.981v26.864h5.981V19.188zm32.15 26.624l-2.742-2.639-.249-5.756h6.231v2.638h12.71v-4.557h-15.95l-2.742-1.919-.249-11.513 2.991-2.878h19.19l2.741 2.639.25 5.756h-6.231v-2.638h-12.71v4.557h15.95l2.741 2.638.25 10.794-2.991 2.878h-19.19zm36.635 0V24.945h-9.47v-5.757h24.922v5.757h-9.47v20.867h-5.982zm37.384 0v-7.915h-12.96v7.915h-5.981V27.343l8.224-8.155h16.698v26.864h-5.981v-.24zm0-13.672v-7.195h-7.726l-5.234 5.276v2.16h12.96v-.24zm15.202 13.672l-2.991-2.639V22.066l2.742-2.878h19.19l2.991 2.639v5.756h-5.982v-2.638h-12.71v15.11h12.71v-2.638h5.982v5.517l-2.742 2.878h-19.19zm46.854 0v-5.517l-5.483-5.037-7.477.24v10.314h-6.23V19.188h6.23v10.314h7.726l5.234-5.037v-5.277H400v8.155l-5.234 5.277 4.985 4.797.249 8.395h-5.981z" fill="#fff"/></svg>